<?xml version="1.0" standalone="no"?>
<!DOCTYPE svg PUBLIC "-//W3C//DTD SVG 20010904//EN"
 "http://www.w3.org/TR/2001/REC-SVG-20010904/DTD/svg10.dtd">
<svg version="1.0" xmlns="http://www.w3.org/2000/svg"
 width="1024.000000pt" height="1024.000000pt" viewBox="0 0 1024.000000 1024.000000"
 preserveAspectRatio="xMidYMid meet">

<g transform="translate(0.000000,1024.000000) scale(0.100000,-0.100000)"
fill="#000000" stroke="none">
<path d="M0 5120 l0 -5120 5120 0 5120 0 0 5120 0 5120 -5120 0 -5120 0 0
-5120z m5114 3846 c40 -26 60 -64 60 -115 0 -138 -144 -217 -250 -136 -50 38
-68 81 -60 140 18 114 154 175 250 111z m391 20 c33 -7 70 -18 82 -25 26 -13
53 -60 53 -90 0 -23 -20 -71 -30 -71 -3 0 -14 -6 -24 -13 -18 -13 -18 -15 2
-61 19 -42 20 -48 5 -53 -24 -10 -46 10 -64 56 -16 44 -32 61 -61 61 -12 0
-18 -13 -23 -48 -6 -46 -8 -48 -33 -44 l-27 4 7 66 c3 37 10 104 14 150 8 93
3 89 99 68z m-855 -107 c0 -11 -14 -22 -39 -31 l-39 -13 24 -100 c14 -54 22
-105 20 -112 -3 -7 -16 -13 -29 -13 -21 0 -25 7 -40 78 -9 42 -17 90 -17 106
0 25 -3 27 -22 21 -89 -26 -94 -26 -99 15 -3 32 2 40 29 41 15 0 63 13 107 27
70 24 82 26 93 13 6 -8 12 -23 12 -32z m1258 5 c6 -52 22 -104 34 -104 6 0 28
19 50 42 l38 42 36 -18 36 -17 -23 -20 c-13 -12 -49 -41 -80 -66 -41 -32 -63
-58 -77 -93 -20 -49 -21 -49 -52 -39 -22 8 -28 14 -20 23 5 7 16 31 24 54 14
38 13 47 -4 96 -15 45 -25 109 -21 138 1 3 13 3 29 -1 20 -6 28 -14 30 -37z
m2636 -7 c9 -14 5 -23 -27 -52 -21 -19 -47 -40 -58 -45 -11 -6 -16 -16 -13
-22 5 -7 2 -8 -5 -3 -15 8 -66 -37 -87 -76 -7 -15 -30 -70 -49 -123 -31 -83
-35 -99 -23 -114 12 -16 11 -16 -6 -2 -18 14 -19 13 -14 -8 4 -12 3 -20 -1
-18 -4 3 -17 -23 -28 -57 -12 -34 -36 -100 -53 -147 -17 -47 -47 -130 -65
-185 -19 -55 -55 -158 -80 -230 -26 -71 -60 -173 -77 -225 -16 -52 -39 -117
-50 -145 -30 -73 -55 -144 -99 -290 -22 -71 -54 -165 -70 -207 -17 -42 -27
-82 -23 -89 4 -7 3 -9 -4 -5 -13 8 -63 -61 -56 -78 3 -7 -4 -21 -16 -31 -11
-10 -20 -15 -20 -11 0 4 -12 -7 -27 -25 -16 -18 -27 -36 -26 -39 1 -4 -4 -7
-10 -7 -7 0 -36 -16 -64 -37 -82 -59 -152 -80 -263 -80 -113 0 -170 6 -163 17
3 5 -1 8 -8 6 -34 -4 -59 3 -80 22 l-24 21 25 -14 c25 -15 70 -29 70 -23 0 2
-17 14 -37 26 -21 13 -59 43 -85 68 -27 24 -48 39 -48 33 0 -6 14 -22 31 -37
22 -17 34 -39 39 -66 7 -35 6 -38 -9 -27 -39 31 -66 67 -95 128 -73 154 -13
320 151 417 40 23 59 28 114 28 87 0 149 -36 197 -115 45 -75 44 -126 -2 -174
-29 -32 -39 -36 -82 -36 -87 0 -168 80 -119 117 18 12 18 13 -4 13 -12 0 -36
-13 -52 -29 -50 -50 -34 -127 39 -193 62 -56 99 -72 167 -72 130 0 246 96 335
277 28 56 54 123 59 149 8 43 5 54 -25 115 -187 381 -291 598 -334 698 -98
227 -148 322 -182 349 -52 39 -139 70 -160 57 -20 -12 -39 -15 -23 -3 6 4 18
19 27 33 21 34 55 49 262 119 94 32 206 73 248 91 43 18 81 30 84 26 4 -4 -9
-31 -29 -62 -47 -69 -47 -100 -3 -213 52 -137 200 -470 262 -594 51 -101 58
-110 65 -88 4 14 62 192 129 395 67 204 130 407 141 452 18 74 18 86 5 117
-18 44 -64 60 -141 51 -76 -10 -147 1 -143 22 5 27 75 59 268 124 102 34 228
82 280 106 100 45 145 51 164 20z m-4330 -106 c21 -24 16 -27 -56 -36 -46 -6
-58 -11 -58 -25 0 -31 24 -41 83 -34 53 6 58 5 86 -24 54 -53 36 -117 -43
-153 -59 -27 -83 -24 -101 11 -8 16 -15 31 -15 35 0 3 21 5 46 5 59 0 84 14
84 47 0 25 -1 25 -52 18 -96 -14 -100 -14 -125 30 -29 51 -29 76 0 102 52 47
120 58 151 24z m1301 -331 c-27 -12 -43 -12 -25 0 8 5 22 9 30 9 10 0 8 -3 -5
-9z m-59 -25 c-11 -8 -26 -15 -33 -15 -7 0 -52 -14 -101 -31 -48 -16 -118 -39
-157 -49 -68 -18 -108 -29 -430 -125 -161 -48 -262 -75 -273 -74 -30 2 397
134 758 234 47 13 117 35 155 49 82 29 110 33 81 11z m502 -91 c-3 -3 -28 -11
-54 -19 -27 -8 -128 -41 -224 -75 -159 -55 -249 -84 -655 -212 -315 -99 -535
-162 -542 -154 -3 2 62 26 143 51 82 26 158 51 169 55 31 14 461 152 650 209
94 29 229 72 300 97 160 54 236 72 213 48z m971 -68 c38 -20 110 -100 127
-143 10 -22 13 -47 8 -66 -8 -38 -32 -77 -47 -77 -7 0 -35 -24 -63 -52 -136
-139 -143 -140 -238 -13 -54 71 -90 96 -115 81 -6 -4 -34 -41 -62 -82 -54 -78
-71 -84 -71 -23 0 47 119 235 186 296 93 84 204 115 275 79z m-1962 -32 c-3
-3 -12 -4 -19 -1 -8 3 -5 6 6 6 11 1 17 -2 13 -5z m1503 -61 c0 -5 -7 -75 -14
-158 -15 -157 -20 -553 -8 -690 6 -75 7 -77 13 -35 3 25 7 -38 7 -139 1 -101
-1 -181 -5 -178 -3 4 -5 55 -4 113 2 68 -1 104 -8 100 -5 -3 -12 2 -14 11 -6
21 -2 -433 4 -461 4 -19 -30 -37 -201 -102 -36 -14 -76 -34 -90 -45 l-25 -19
28 4 c32 5 79 -12 71 -26 -3 -4 -10 -6 -15 -3 -5 4 -9 2 -9 -4 0 -6 -12 -14
-27 -17 -16 -4 -68 -22 -116 -41 -125 -48 -139 -31 -56 64 28 32 69 95 92 141
l41 84 4 504 c3 388 2 511 -8 534 -19 46 -63 77 -127 90 -186 37 -182 46 52
126 99 34 222 82 274 108 87 42 141 57 141 39z m-2430 -38 c0 -9 -6 -26 -14
-38 -12 -18 -15 -94 -18 -402 l-3 -380 185 71 c102 39 195 76 207 82 58 32 56
5 -6 -79 -62 -85 -97 -111 -196 -147 -44 -17 -106 -40 -138 -53 l-58 -22 5
-141 c3 -78 5 -329 5 -558 1 -272 5 -418 11 -418 6 0 10 15 11 33 l1 32 9 -35
c6 -19 22 -46 36 -59 23 -20 35 -23 84 -19 119 9 265 111 324 229 58 113 68
200 34 295 -27 74 -37 274 -19 367 19 96 68 244 110 328 135 272 331 447 608
543 254 88 420 60 577 -98 38 -39 84 -98 102 -131 45 -86 73 -205 73 -312 0
-96 -33 -263 -69 -348 l-21 -50 4 45 c3 25 12 94 20 154 8 61 14 112 12 114
-2 2 -11 -23 -20 -55 -57 -208 -163 -438 -254 -553 -121 -152 -330 -294 -497
-337 -76 -20 -224 -20 -289 1 -74 23 -41 2 43 -28 84 -30 91 -34 71 -46 -9 -5
3 -8 33 -8 25 0 54 -5 64 -11 14 -8 0 -10 -59 -11 -133 0 -305 69 -386 156
-19 20 -35 34 -36 32 -1 -2 -28 -44 -60 -95 -132 -212 -218 -262 -578 -338
-115 -24 -137 -37 -222 -132 -30 -34 -36 -47 -27 -56 9 -9 -4 -17 -55 -34 -37
-13 -70 -21 -72 -18 -3 2 12 23 33 46 61 67 107 179 116 279 4 47 8 314 8 594
l1 509 -47 -7 c-58 -8 -158 -53 -224 -102 -70 -51 -63 -23 26 116 41 63 49 70
139 116 l95 49 6 50 c4 27 5 149 3 271 l-3 221 -27 35 c-18 23 -45 43 -75 54
-27 9 -54 23 -62 30 -24 22 12 50 154 118 71 35 168 86 215 114 90 55 110 62
110 37z m377 -57 c-3 -7 -5 -2 -5 12 0 14 2 19 5 13 2 -7 2 -19 0 -25z m-380
-340 c-1 -51 -3 -12 -3 87 0 99 2 141 3 93 2 -48 2 -129 0 -180z m-1082 177
c97 -24 218 -91 294 -161 109 -101 161 -221 161 -369 0 -97 -12 -138 -48 -161
-18 -12 -23 -13 -16 -3 6 8 14 28 18 44 5 24 1 20 -23 -20 -62 -107 -173 -184
-275 -193 -47 -4 -122 15 -211 53 -19 8 -19 8 -2 -9 9 -9 17 -22 17 -27 0 -6
6 -7 13 -3 6 4 9 4 5 -1 -4 -4 -3 -14 4 -22 6 -7 8 -16 4 -20 -10 -10 -81 71
-107 123 -36 73 -34 175 4 232 43 66 100 102 159 102 58 0 110 -22 138 -58 41
-51 14 -144 -51 -177 -38 -20 -28 -34 28 -42 54 -7 96 16 128 70 35 60 41 121
20 192 -9 32 -22 67 -29 79 -8 12 -17 33 -20 49 -10 43 -125 153 -192 185 -55
25 -68 27 -189 27 -113 0 -138 -3 -189 -24 -107 -43 -184 -135 -221 -266 -35
-120 1 -321 79 -438 72 -108 164 -178 476 -362 91 -54 197 -122 237 -152 138
-104 255 -270 294 -418 17 -64 21 -111 22 -235 1 -168 -11 -235 -58 -333 -14
-29 -22 -41 -18 -27 4 14 7 33 7 42 0 9 3 15 7 12 8 -5 32 57 25 64 -3 2 -8
-7 -12 -22 -6 -27 -24 -36 -24 -12 0 7 7 33 15 56 8 24 14 45 12 47 -2 2 -16
-29 -31 -69 -42 -114 -101 -205 -195 -298 -71 -70 -103 -93 -181 -132 -116
-57 -201 -85 -299 -99 -156 -22 -366 32 -518 132 -26 17 -33 18 -33 6 0 -8 6
-17 14 -20 13 -5 29 -67 17 -67 -16 0 -141 120 -178 170 -80 110 -103 181
-103 318 0 143 43 257 130 342 78 77 152 112 249 118 91 5 141 -7 204 -49 88
-58 149 -181 130 -262 -9 -40 -10 -41 -20 -18 -9 24 -10 23 -31 -21 -12 -24
-22 -50 -22 -56 0 -7 -7 -12 -15 -12 -9 0 -28 -9 -44 -21 -39 -29 -94 -39
-139 -26 -49 14 -56 15 -64 3 -13 -19 -21 3 -26 72 -4 56 -1 75 17 108 34 64
45 74 84 74 49 0 54 14 15 42 -41 28 -102 29 -148 2 -40 -23 -95 -126 -104
-193 -7 -53 21 -176 54 -240 11 -22 47 -69 80 -104 125 -134 332 -197 503
-152 170 44 282 155 332 329 13 46 16 84 13 165 -8 164 -47 247 -179 379 -40
40 -73 72 -75 72 -6 0 -344 211 -344 215 0 2 9 3 20 2 11 -1 20 -5 20 -10 0
-5 17 -7 38 -4 27 5 33 4 20 -4 -30 -17 -20 -26 28 -24 35 1 56 -5 92 -28 26
-16 52 -34 57 -41 6 -6 21 -20 35 -29 13 -9 19 -17 12 -17 -6 0 -12 -4 -12
-10 0 -5 7 -7 16 -3 13 5 15 2 9 -18 -6 -20 -5 -22 6 -11 22 20 34 14 94 -45
45 -45 54 -51 42 -28 -29 57 -156 152 -417 314 -63 39 -164 105 -225 147 -60
42 -94 61 -75 43 19 -18 34 -37 32 -42 -1 -5 3 -5 9 -1 8 4 9 0 4 -15 -3 -11
-3 -21 2 -21 4 0 14 -10 22 -21 l13 -22 -29 21 c-122 89 -242 272 -280 431
-22 91 -22 286 0 371 22 83 95 234 146 297 97 123 286 232 446 257 54 8 239
-3 300 -19z m-235 -135 c0 -5 -4 -10 -10 -10 -5 0 -10 5 -10 10 0 6 5 10 10
10 6 0 10 -4 10 -10z m420 -167 c0 -6 -33 15 -57 36 -13 11 -23 24 -23 31 0 6
-5 8 -12 4 -7 -5 -8 -3 -3 5 5 9 20 0 51 -30 24 -24 44 -45 44 -46z m5044
-328 c72 -99 197 -340 229 -442 50 -157 60 -233 54 -398 -6 -146 -16 -208 -51
-308 -18 -55 -61 -137 -79 -152 -7 -5 -14 -19 -15 -29 -4 -23 -60 -111 -91
-143 -23 -24 -37 -31 -26 -12 4 6 -3 5 -16 -3 -29 -17 -65 -59 -61 -73 2 -5 0
-7 -4 -2 -4 4 -19 -3 -33 -15 l-25 -23 22 29 c34 45 16 44 -31 -1 -23 -22 -53
-50 -67 -62 -38 -34 -275 -173 -370 -218 -118 -56 -346 -137 -465 -166 -55
-14 -126 -32 -157 -41 -91 -26 -607 -116 -668 -116 -181 -3 -752 -85 -903
-131 l-68 -20 7 -32 c3 -18 10 -34 15 -35 5 -2 6 -9 3 -15 -5 -8 -2 -8 7 1 14
13 49 17 49 4 0 -4 -22 -15 -48 -24 -64 -23 -155 -84 -220 -147 -30 -28 -58
-49 -63 -46 -5 4 -9 -1 -9 -10 0 -9 -9 -35 -20 -57 -11 -23 -18 -43 -16 -45 1
-2 43 -23 92 -47 92 -44 164 -70 297 -105 90 -24 302 -116 402 -174 96 -56
238 -196 302 -299 59 -94 93 -203 93 -297 0 -50 -20 -145 -48 -237 -37 -117
-176 -291 -359 -446 -42 -36 -54 -36 -20 0 14 15 37 48 50 72 13 25 40 74 59
110 162 299 173 332 165 480 -11 174 -61 276 -206 421 -102 101 -180 159 -279
207 -33 16 -74 39 -90 51 -17 11 -35 21 -40 21 -6 0 -34 11 -64 25 -74 35 -90
31 -43 -10 22 -19 43 -35 47 -35 4 0 31 -21 60 -48 29 -26 98 -78 153 -117
175 -121 282 -255 331 -411 57 -182 13 -339 -202 -729 -34 -61 -36 -66 -22
-83 11 -13 11 -15 -4 -9 -13 5 -18 1 -18 -12 0 -10 -9 -26 -20 -36 -11 -10
-18 -20 -16 -22 2 -2 -21 -27 -52 -56 -77 -73 -179 -201 -213 -269 -38 -75
-94 -138 -124 -138 -12 0 -37 10 -56 23 -29 19 -34 29 -37 67 -2 26 3 59 14
82 9 21 14 41 11 45 -13 12 16 33 44 33 22 0 29 5 29 20 0 22 15 27 23 8 4
-10 8 -9 16 2 6 8 11 11 11 6 0 -5 12 1 26 15 24 23 63 92 68 121 1 7 36 74
79 148 86 152 161 330 184 435 56 267 -69 556 -329 756 -148 115 -173 128
-510 265 -188 76 -221 92 -315 155 -81 55 -110 89 -149 173 -32 69 -28 116 15
191 65 114 211 222 411 306 102 43 520 161 550 155 14 -2 61 4 105 14 44 10
145 28 225 40 80 12 216 35 304 51 87 16 163 29 168 29 5 0 -13 -26 -41 -57
-28 -31 -60 -80 -72 -108 l-21 -52 -92 -6 c-136 -9 -357 -45 -482 -78 -124
-32 -213 -67 -324 -126 -90 -48 -117 -56 -124 -37 -8 21 -26 17 -26 -6 0 -11
-4 -20 -10 -20 -14 0 -13 -37 1 -42 6 -2 13 -36 15 -78 4 -90 11 -128 30 -158
20 -31 52 -29 59 6 30 140 47 170 125 217 159 97 267 130 626 196 l230 42 79
-36 c91 -41 101 -40 177 27 99 87 119 93 337 106 203 12 219 14 396 54 130 30
171 44 375 129 180 75 313 140 402 197 88 57 198 149 240 201 93 115 189 328
208 462 16 106 3 262 -32 406 -37 156 -111 354 -149 402 -17 22 -29 49 -29 65
0 46 32 154 45 154 2 0 28 -34 59 -75z m-1737 -182 c-2 -16 -4 -5 -4 22 0 28
2 40 4 28 2 -13 2 -35 0 -50z m1626 -198 c38 -13 65 -60 102 -185 30 -98 37
-259 16 -369 -27 -138 -113 -351 -143 -351 -6 0 -9 -3 -5 -6 9 -9 -44 -83 -94
-129 -24 -22 -37 -32 -30 -22 7 9 10 17 5 18 -5 0 0 4 11 9 17 7 17 9 3 9 -10
1 -18 6 -18 12 0 5 -4 7 -10 4 -19 -12 -10 15 23 62 17 26 34 50 37 53 16 15
75 141 102 217 24 66 32 106 32 160 1 39 -3 75 -7 79 -5 5 -27 8 -50 7 -38 -1
-123 -33 -307 -116 -60 -27 -157 -52 -235 -62 l-50 -6 40 23 c98 58 197 129
223 160 72 83 123 151 162 216 24 39 47 69 53 65 6 -3 7 -2 4 4 -5 8 41 156
57 182 4 6 14 4 27 -7 11 -9 34 -22 52 -27z m-1548 -165 c3 -5 2 -10 -4 -10
-5 0 -13 5 -16 10 -3 6 -2 10 4 10 5 0 13 -4 16 -10z m-122 -89 c-4 -16 1 -20
29 -23 30 -3 27 -5 -36 -26 -78 -25 -131 -28 -139 -9 -3 9 4 12 27 10 39 -4
68 12 46 26 -8 6 -12 11 -10 13 30 19 48 27 67 27 16 1 20 -4 16 -18z m-3903
-181 c0 -5 -2 -10 -4 -10 -3 0 -8 5 -11 10 -3 6 -1 10 4 10 6 0 11 -4 11 -10z
m173 -57 c-7 -2 -19 -2 -25 0 -7 3 -2 5 12 5 14 0 19 -2 13 -5z m4253 -60 c59
-50 95 -66 193 -88 39 -9 69 -20 66 -25 -3 -5 -24 -11 -48 -15 -65 -11 -241
-71 -315 -109 -198 -101 -346 -244 -424 -408 -23 -49 -46 -88 -51 -88 -4 0 -6
4 -2 9 14 24 -220 -1 -455 -49 -80 -16 -194 -36 -255 -45 -60 -8 -168 -29
-240 -45 -71 -17 -191 -43 -265 -60 -204 -45 -188 -42 -165 -31 14 7 15 10 5
10 -17 1 -51 -18 -35 -20 6 0 -10 -7 -35 -15 -25 -7 -51 -12 -58 -9 -7 3 -10
0 -7 -5 3 -6 0 -10 -7 -10 -26 0 -197 -91 -291 -155 -177 -121 -273 -255 -284
-396 -5 -63 -2 -83 16 -124 49 -112 169 -223 323 -301 66 -33 328 -141 398
-163 105 -33 295 -166 403 -281 117 -124 192 -301 190 -445 -2 -102 -19 -172
-77 -315 -53 -130 -70 -160 -91 -160 -8 0 -15 -9 -15 -20 0 -11 -5 -20 -11
-20 -7 0 -9 -10 -6 -26 3 -17 1 -24 -8 -20 -8 3 -11 -2 -8 -14 8 -28 -47 -130
-70 -130 -10 0 -15 -4 -12 -10 10 -16 0 -12 -25 10 -25 22 -25 25 13 166 49
177 60 440 24 569 -43 154 -101 250 -226 376 -119 120 -243 198 -562 351 -230
110 -277 129 -312 127 -26 -2 -61 6 -91 19 -27 12 -51 22 -54 22 -12 0 -82 74
-82 86 0 7 -14 26 -31 43 -17 17 -27 36 -23 42 3 6 0 15 -7 20 -8 5 -9 9 -3 9
7 0 14 36 19 98 8 106 26 164 62 201 13 13 35 47 49 75 14 28 36 65 48 81 62
83 34 73 -67 -23 -45 -43 -87 -81 -93 -83 -18 -7 -136 -162 -151 -199 -22 -52
-11 -150 26 -225 55 -112 162 -201 319 -265 591 -243 746 -333 905 -523 74
-88 109 -159 147 -294 36 -130 39 -230 10 -343 -11 -41 -18 -61 -17 -43 5 52
-9 28 -22 -37 -7 -37 -20 -68 -32 -78 -12 -10 -19 -29 -19 -50 0 -19 -4 -31
-10 -27 -5 3 -12 -4 -14 -17 -20 -92 -25 -131 -21 -138 3 -5 -6 -22 -20 -38
-14 -16 -25 -35 -25 -40 0 -6 -7 -15 -16 -20 -10 -5 -17 -23 -18 -41 -1 -26
-4 -30 -21 -25 -35 11 -38 21 -21 71 9 26 29 100 44 163 23 98 27 137 27 260
0 168 -18 242 -87 370 -92 168 -190 284 -334 393 -106 80 -196 128 -394 210
-302 126 -397 179 -499 278 -104 101 -151 207 -151 339 1 225 139 412 440 595
172 105 450 224 698 299 225 68 695 162 1077 216 153 21 361 71 525 126 112
38 313 149 384 213 79 72 171 214 190 294 8 32 10 31 82 -30z m-295 -25 c-24
-39 -28 -30 -5 13 8 17 18 28 21 25 3 -3 -4 -20 -16 -38z m-110 -85 c-25 -48
-106 -100 -211 -138 -118 -42 -419 -113 -553 -130 -67 -9 -138 -20 -157 -25
-19 -5 -91 -18 -160 -29 -794 -128 -1457 -371 -1822 -668 -63 -51 -141 -129
-149 -149 -2 -5 -19 -20 -38 -33 l-34 -24 24 44 c36 66 207 231 305 295 126
83 387 208 574 276 324 117 799 235 1140 282 126 18 175 26 485 86 212 42 389
91 461 128 21 12 62 39 89 61 59 46 58 46 46 24z m1419 1 c0 -9 -15 -42 -34
-73 -18 -31 -41 -73 -51 -94 -19 -41 -195 -213 -233 -228 -37 -14 -128 -10
-173 7 -33 14 -47 15 -80 5 -38 -11 -39 -13 -39 -56 0 -51 21 -72 83 -82 43
-6 51 -15 42 -43 -13 -42 -145 -54 -290 -26 -110 22 -155 21 -155 -2 0 -33 30
-61 85 -78 30 -10 55 -21 55 -24 0 -10 -148 -58 -214 -70 -89 -15 -298 -13
-321 4 -17 12 -14 16 36 56 51 41 304 172 399 207 25 9 119 49 210 88 91 40
190 80 220 90 87 28 200 90 273 151 38 31 66 58 64 60 -6 6 -179 -43 -282 -81
-55 -21 -139 -50 -186 -65 -47 -15 -100 -35 -118 -45 -18 -9 -35 -14 -38 -11
-10 10 45 110 84 153 l38 42 145 20 c138 20 328 63 415 95 53 19 65 19 65 0z
m-3903 -56 c-3 -8 -6 -5 -6 6 -1 11 2 17 5 13 3 -3 4 -12 1 -19z m3113 -93 c0
-9 -9 -33 -20 -55 -25 -49 -27 -108 -4 -117 12 -4 -12 -20 -75 -49 -131 -61
-133 -62 -125 -27 8 38 59 147 84 183 17 24 109 80 132 80 4 0 8 -7 8 -15z
m-295 -165 c-10 -31 -15 -69 -13 -94 l5 -41 -156 -91 c-133 -78 -156 -89 -159
-73 -5 29 64 135 139 214 59 61 185 152 197 140 2 -2 -4 -27 -13 -55z m1660
18 c-22 -73 -101 -211 -187 -325 -69 -93 -120 -142 -280 -269 -150 -120 -473
-278 -738 -362 -220 -69 -615 -144 -935 -177 -632 -65 -781 -90 -913 -150 -78
-36 -53 -15 35 29 72 36 191 69 293 81 30 3 141 19 245 35 105 16 263 36 352
45 88 8 199 22 245 30 45 8 149 26 230 40 80 14 175 34 210 45 34 10 103 29
151 40 197 47 522 191 717 317 231 150 446 381 546 586 29 60 40 73 29 35z
m-525 -363 c-21 -25 -71 -58 -77 -51 -9 8 59 60 86 65 2 1 -2 -6 -9 -14z
m-4617 -87 c-4 -19 -3 -20 6 -8 6 8 11 10 11 4 0 -21 -61 -105 -85 -116 -15
-7 -21 -14 -15 -18 12 -7 -94 -110 -113 -110 -7 0 -18 4 -25 9 -10 6 -10 10 3
21 8 7 15 18 15 26 0 14 39 40 53 36 5 -1 6 2 3 7 -3 5 17 32 44 60 28 28 50
56 50 62 0 6 7 17 15 25 8 9 15 12 15 8 0 -5 5 -3 12 4 16 16 17 15 11 -10z
m3049 -25 c-11 -16 -51 -62 -90 -103 -61 -66 -71 -73 -86 -61 -37 31 -19 54
118 150 69 48 85 52 58 14z m1338 -43 c-8 -6 -24 -15 -35 -21 -16 -8 -15 -6 4
10 13 12 28 21 35 21 6 0 4 -5 -4 -10z m-167 -86 c-151 -73 -404 -159 -443
-151 -15 3 95 40 155 52 17 4 39 10 50 15 11 4 36 14 55 20 48 17 91 35 180
75 109 48 111 41 3 -11z m-548 -183 c-11 -5 -40 -11 -65 -14 l-45 -6 45 13
c25 8 54 14 65 14 l20 1 -20 -8z m-455 -87 c-41 -7 -106 -12 -145 -12 l-70 1
90 12 c50 7 115 12 145 12 l55 0 -75 -13z m-4063 0 c-3 -3 -12 -4 -19 -1 -8 3
-5 6 6 6 11 1 17 -2 13 -5z m3397 -76 c-2 -3 15 -4 38 -2 32 3 38 2 22 -5 -28
-12 -213 -35 -221 -27 -4 3 3 6 15 6 12 0 22 5 22 10 0 6 24 10 53 10 34 0 47
3 38 9 -10 7 -7 9 12 8 14 -1 23 -5 21 -9z m-187 -44 c-3 -3 -12 -4 -19 -1 -8
3 -5 6 6 6 11 1 17 -2 13 -5z m-152 -33 c-6 -4 -31 -13 -56 -19 -26 -7 -54
-15 -64 -19 -13 -4 -16 -3 -11 5 5 8 0 12 -14 12 -12 0 -19 4 -15 9 3 6 27 8
53 5 26 -3 61 -1 77 5 40 12 41 12 30 2z m1939 -310 c60 -138 67 -171 38 -171
-13 0 -24 13 -35 40 -15 40 -15 40 -71 40 l-55 0 -12 -40 c-12 -40 -23 -47
-48 -31 -24 15 83 291 113 291 8 0 38 -55 70 -129z m357 93 c72 -69 19 -164
-91 -164 -29 0 -30 -2 -30 -45 0 -38 -3 -45 -20 -45 -19 0 -20 7 -20 146 l0
147 68 -7 c52 -6 73 -13 93 -32z m309 11 c16 -8 34 -24 40 -34 13 -25 13 -77
0 -100 -11 -21 -79 -51 -115 -51 -23 0 -25 -4 -25 -45 0 -38 -3 -45 -19 -45
-28 0 -33 26 -30 165 l3 125 59 0 c32 0 71 -7 87 -15z m-2810 -100 c-13 -14
-26 -22 -29 -19 -3 3 5 14 19 24 34 27 38 25 10 -5z m1519 -391 c194 -18 205
-20 481 -94 267 -73 387 -116 407 -146 8 -13 50 -110 92 -216 295 -733 439
-1086 504 -1238 84 -196 149 -358 166 -409 10 -32 10 -33 -6 -19 -21 18 -299
158 -393 198 -36 15 -112 49 -170 75 -289 130 -520 214 -750 271 -351 88 -506
109 -790 108 -292 0 -433 -23 -634 -100 -138 -53 -138 -50 11 77 117 101 271
260 373 386 195 243 263 525 179 748 -25 67 -122 215 -173 264 -20 19 -36 40
-36 47 0 33 329 78 500 68 41 -3 149 -12 239 -20z m-3290 -62 c118 -98 298
-191 536 -278 186 -67 328 -154 454 -277 97 -94 212 -292 246 -422 21 -82 19
-238 -4 -360 -22 -112 -42 -195 -47 -195 -2 0 -50 15 -106 34 -196 66 -278 78
-539 83 -281 6 -432 -9 -649 -62 -200 -49 -369 -106 -540 -183 -80 -35 -185
-80 -235 -99 -49 -19 -151 -64 -225 -100 -74 -36 -175 -83 -223 -104 -49 -21
-120 -61 -158 -90 -38 -28 -72 -49 -75 -46 -8 8 40 136 132 352 75 179 165
396 313 760 262 642 328 798 343 815 24 26 341 126 505 160 76 16 149 33 163
39 42 17 61 12 109 -27z m4493 -375 c27 -7 52 -17 57 -22 6 -6 37 -80 70 -165
32 -85 94 -238 136 -340 43 -102 78 -195 79 -207 0 -11 4 -19 7 -18 3 2 6 -19
7 -47 0 -28 5 -54 9 -57 4 -3 10 -15 11 -26 2 -11 8 -24 13 -30 15 -15 10 -25
-11 -25 -17 0 -19 -3 -11 -19 6 -10 8 -21 5 -24 -3 -2 30 -83 72 -178 42 -96
79 -194 82 -219 3 -25 8 -47 12 -50 13 -9 41 -101 34 -112 -4 -7 -2 -8 4 -4 8
5 12 -1 12 -14 0 -13 -4 -19 -12 -14 -7 5 -8 3 -3 -6 13 -20 24 -93 13 -82 -5
5 -51 110 -102 233 -52 123 -112 267 -135 319 -23 52 -67 160 -98 240 -31 80
-121 308 -200 508 -79 199 -143 367 -143 373 0 7 9 9 23 5 12 -4 43 -12 69
-19z m-5482 3 c0 -5 -13 -25 -30 -43 -16 -19 -30 -40 -30 -46 0 -6 -7 -11 -15
-11 -8 0 -24 -13 -36 -30 -12 -16 -29 -32 -37 -35 -12 -4 -13 -3 -2 9 6 9 10
21 7 28 -6 16 -55 -85 -63 -132 -4 -19 -10 -40 -15 -46 -9 -11 -88 -193 -144
-329 -18 -44 -70 -165 -115 -270 -46 -104 -102 -235 -125 -290 -23 -55 -67
-158 -97 -230 -30 -71 -89 -211 -131 -310 -135 -319 -185 -429 -205 -444 -28
-22 -62 -82 -62 -109 0 -27 -4 -28 155 29 61 21 216 70 345 109 129 38 287 85
350 105 63 19 183 55 265 80 83 25 202 61 265 80 214 65 554 153 785 203 536
117 739 149 870 137 139 -13 187 -30 317 -111 160 -100 256 -134 398 -141 161
-8 269 28 483 161 100 62 149 76 295 83 153 8 335 -20 907 -141 298 -63 552
-128 795 -203 210 -65 513 -154 690 -203 187 -52 338 -102 435 -143 34 -14 99
-35 145 -47 96 -24 120 -41 120 -81 l0 -27 -97 37 c-129 50 -463 157 -763 244
-47 13 -146 44 -220 67 -74 23 -187 55 -250 71 -63 16 -143 38 -177 50 -35 11
-111 34 -170 50 -60 16 -124 34 -143 39 -19 6 -71 17 -115 26 -44 8 -132 28
-195 44 -175 44 -379 87 -545 116 -82 14 -192 32 -243 41 -84 15 -104 15 -216
1 -136 -16 -183 -34 -313 -119 -143 -93 -328 -140 -469 -119 -168 26 -254 60
-389 154 -103 73 -176 96 -300 96 -108 0 -335 -31 -480 -65 -55 -13 -163 -36
-240 -50 -264 -50 -637 -148 -1045 -275 -69 -21 -224 -69 -345 -105 -683 -207
-947 -292 -962 -311 -10 -13 -12 -13 -18 6 -4 14 4 39 26 78 18 31 49 98 70
147 63 154 124 296 174 405 26 58 55 128 65 155 18 52 111 271 232 550 73 167
205 482 313 745 138 337 115 302 200 318 69 13 95 14 95 2z m2537 -792 c-3 -7
-5 -2 -5 12 0 14 2 19 5 13 2 -7 2 -19 0 -25z m3361 -243 c-3 -3 -9 2 -12 12
-6 14 -5 15 5 6 7 -7 10 -15 7 -18z m-1893 -116 c248 -21 679 -119 945 -214
58 -21 161 -62 230 -92 69 -30 173 -74 231 -98 58 -23 148 -65 200 -92 52 -28
159 -84 239 -126 80 -42 155 -87 166 -99 21 -24 90 -176 83 -183 -7 -7 -63 9
-354 100 -154 48 -341 105 -415 126 -74 22 -169 50 -210 63 -119 39 -391 111
-565 150 -88 20 -209 48 -270 61 -60 14 -180 36 -265 50 -85 13 -207 36 -270
49 -160 35 -219 40 -340 26 -160 -17 -251 -44 -377 -111 -142 -74 -182 -75
-202 -2 -13 45 1 74 61 129 98 91 272 165 512 219 224 50 394 62 601 44z
m-2170 -33 c162 -32 258 -61 275 -82 15 -18 0 -50 -54 -116 l-31 -38 -130 0
c-132 -1 -185 -8 -425 -54 -74 -15 -191 -37 -260 -51 -197 -37 -403 -83 -451
-99 -24 -8 -100 -31 -169 -50 -239 -66 -563 -164 -810 -244 -197 -64 -486
-152 -501 -152 -27 0 47 168 88 200 47 37 215 131 278 157 33 13 112 48 175
78 243 112 694 297 870 355 132 43 408 108 530 123 19 3 136 4 260 2 197 -2
241 -5 355 -29z m4181 -52 c-4 -27 -14 -24 -24 5 -10 28 -9 30 7 19 11 -6 18
-17 17 -24z m24 -33 c0 -5 -7 -11 -14 -14 -10 -4 -13 -1 -9 9 6 15 23 19 23 5z
m-3769 -55 c40 -14 241 -139 259 -161 15 -18 -4 -47 -44 -68 -65 -33 -72 -32
-193 28 -63 32 -117 64 -120 72 -3 8 0 40 7 71 8 32 13 60 12 65 -3 11 39 8
79 -7z m3838 -421 c0 -5 -4 -3 -9 5 -5 8 -9 22 -9 30 0 16 17 -16 18 -35z
m127 -265 c9 -22 20 -40 25 -40 5 0 14 -11 19 -25 9 -22 20 -30 43 -26 4 0 7
-3 7 -8 0 -5 10 -11 23 -14 12 -4 31 -13 42 -21 17 -13 12 -13 -40 0 -33 9
-65 20 -71 25 -10 9 -74 133 -74 144 0 16 12 -1 26 -35z m169 -70 c4 -14 4
-22 0 -18 -5 4 -15 2 -24 -5 -14 -10 -14 -10 -3 5 10 12 11 22 3 37 -6 11 -11
28 -11 38 1 14 4 13 14 -7 7 -14 17 -36 21 -50z m-5459 -15 c19 -8 48 -24 64
-35 28 -20 28 -22 12 -38 -9 -10 -24 -28 -32 -40 l-15 -23 -45 20 c-63 29
-115 27 -146 -4 -42 -42 -15 -68 101 -95 68 -15 132 -54 151 -92 23 -44 14
-118 -19 -161 -39 -51 -89 -72 -172 -72 -69 0 -144 25 -199 67 -18 14 -18 15
6 39 14 14 29 32 34 42 9 15 14 15 58 -8 59 -30 140 -34 168 -8 39 35 14 61
-89 92 -146 43 -212 151 -151 248 43 71 184 106 274 68z m740 -17 c-3 -17 -6
-43 -6 -59 l0 -29 -80 0 -80 0 0 -208 c0 -148 -3 -211 -12 -220 -7 -7 -26 -12
-44 -12 -67 0 -64 -9 -64 226 l0 214 -80 0 -80 0 0 59 0 60 226 -1 226 0 -6
-30z m527 11 c47 -12 106 -63 123 -106 29 -69 7 -159 -50 -204 -14 -11 -26
-25 -26 -31 0 -6 17 -34 38 -62 53 -71 77 -114 68 -123 -4 -4 -33 -8 -64 -8
l-56 0 -41 67 c-60 99 -70 108 -124 108 l-46 0 0 -82 0 -82 -45 -8 c-25 -4
-51 -6 -57 -3 -10 3 -13 68 -13 277 l0 273 127 -3 c71 -1 145 -7 166 -13z
m777 -39 l0 -60 -134 0 -134 0 -7 -30 c-12 -56 -1 -67 75 -75 38 -4 87 -4 109
0 l41 7 0 -56 0 -55 -107 -3 -108 -3 -3 -47 c-4 -58 -5 -57 158 -61 l115 -2 5
-48 c4 -26 4 -50 1 -52 -2 -3 -91 -5 -197 -5 l-192 0 -6 43 c-3 23 -5 144 -5
269 l1 227 56 4 c32 2 119 4 195 5 l137 2 0 -60z m567 43 c3 -10 46 -103 96
-208 87 -183 137 -300 137 -317 0 -4 -29 -8 -64 -8 -59 0 -65 2 -71 23 -3 12
-14 39 -22 60 -15 35 -20 38 -46 33 -16 -3 -67 -6 -113 -6 l-84 0 -23 -47
c-28 -60 -32 -63 -89 -63 -57 0 -59 8 -22 83 15 29 44 101 66 161 47 132 106
277 120 294 6 6 32 12 60 12 37 0 50 -4 55 -17z m601 -16 c12 -12 59 -75 104
-142 44 -66 84 -121 89 -123 4 -2 26 28 48 67 23 38 63 103 91 144 l49 75 53
4 c29 3 57 1 61 -2 4 -4 5 -127 1 -273 l-7 -266 -44 -7 c-29 -4 -49 -2 -56 5
-8 8 -14 69 -17 172 l-5 160 -73 -110 c-85 -127 -97 -139 -120 -124 -9 5 -48
56 -87 113 -38 57 -76 105 -82 108 -10 3 -13 -26 -13 -120 0 -67 -3 -140 -6
-160 l-7 -38 -53 0 -54 0 0 259 c0 143 -3 267 -7 277 -6 15 0 16 53 9 39 -4
67 -14 82 -28z m2222 -284 c96 -36 107 -42 90 -42 -8 0 -64 18 -125 39 -62 23
-93 37 -70 34 22 -4 69 -18 105 -31z m-5962 -14 c2 -20 -2 -28 -17 -32 -12 -3
-21 -1 -21 4 0 5 -9 9 -19 9 -11 0 -22 4 -26 9 -3 6 6 7 22 2 31 -9 53 -4 53
11 0 6 -28 7 -77 3 -74 -7 -110 -15 -66 -15 11 0 20 -7 20 -15 0 -8 -7 -15
-14 -15 -8 0 -12 3 -10 8 3 4 -8 7 -23 7 -15 0 -26 -3 -24 -6 5 -8 -131 -19
-215 -18 -81 1 -111 9 -125 32 -23 38 7 42 280 42 l259 0 3 -26z m4598 18 c4
-4 -4 -7 -19 -7 -37 0 -79 -21 -73 -37 8 -20 -12 -15 -24 6 -16 31 11 51 65
47 24 -1 48 -5 51 -9z m415 3 c21 -12 24 -27 9 -50 -14 -23 -125 -22 -179 2
-31 14 -40 22 -31 28 12 8 -37 15 -160 23 -25 2 42 4 148 5 118 1 201 -2 213
-8z m-411 -54 c0 -2 -13 -6 -30 -8 -16 -3 -30 -1 -30 4 0 4 14 8 30 8 17 0 30
-2 30 -4z"/>
<path d="M4958 8901 c-27 -24 -33 -36 -33 -71 0 -34 6 -47 28 -66 75 -65 188
16 157 112 -21 62 -96 75 -152 25z"/>
<path d="M5468 8924 c-5 -4 -8 -24 -8 -44 0 -35 2 -38 39 -48 67 -16 107 31
62 72 -21 19 -82 32 -93 20z"/>
<path d="M7138 6923 c7 -3 16 -2 19 1 4 3 -2 6 -13 5 -11 0 -14 -3 -6 -6z"/>
<path d="M5169 7671 c-195 -63 -329 -276 -353 -563 -5 -55 -4 -58 4 -21 5 24
14 51 20 60 10 16 10 16 6 -2 -28 -114 -35 -464 -12 -576 26 -121 89 -209 181
-255 51 -24 62 -26 152 -22 83 4 107 9 153 33 121 62 187 140 243 287 65 172
69 199 68 438 0 213 -13 306 -51 387 -60 130 -124 202 -208 233 -64 24 -129
25 -203 1z m-312 -483 c-3 -8 -6 -5 -6 6 -1 11 2 17 5 13 3 -3 4 -12 1 -19z"/>
<path d="M4802 6960 c0 -14 2 -19 5 -12 2 6 2 18 0 25 -3 6 -5 1 -5 -13z"/>
<path d="M2060 5373 c0 -16 65 -80 88 -86 12 -3 20 -1 17 3 -10 16 -105 92
-105 83z"/>
<path d="M8134 5776 c-9 -15 -14 -29 -11 -32 3 -3 13 6 23 20 9 15 14 29 11
32 -3 3 -13 -6 -23 -20z"/>
<path d="M4825 5060 c-3 -5 -1 -10 4 -10 6 0 11 5 11 10 0 6 -2 10 -4 10 -3 0
-8 -4 -11 -10z"/>
<path d="M4778 5008 c-107 -130 -130 -212 -87 -308 24 -55 90 -125 143 -152
66 -34 195 -76 216 -71 42 11 8 73 -39 73 -55 0 -200 132 -226 206 -15 45 2
124 26 124 12 0 19 12 24 40 4 22 11 40 16 40 5 0 9 9 9 20 0 11 -4 20 -10 20
-5 0 -10 8 -11 18 0 14 -2 14 -9 -3 -8 -19 -9 -19 -9 3 -1 30 -11 28 -43 -10z"/>
<path d="M5335 4930 c-3 -5 -1 -10 4 -10 6 0 11 5 11 10 0 6 -2 10 -4 10 -3 0
-8 -4 -11 -10z"/>
<path d="M7945 6770 c-3 -5 -1 -10 4 -10 6 0 11 5 11 10 0 6 -2 10 -4 10 -3 0
-8 -4 -11 -10z"/>
<path d="M4485 5293 c-21 -5 -110 -43 -160 -69 -16 -8 -21 -12 -10 -8 11 4 38
11 60 17 40 10 111 42 130 58 5 5 7 8 5 8 -3 -1 -14 -4 -25 -6z"/>
<path d="M4150 5140 c-13 -8 -13 -10 2 -10 9 0 20 5 23 10 8 13 -5 13 -25 0z"/>
<path d="M3330 5429 c0 -5 5 -7 10 -4 6 3 10 8 10 11 0 2 -4 4 -10 4 -5 0 -10
-5 -10 -11z"/>
<path d="M3300 5406 c0 -8 -6 -16 -12 -19 -7 -2 -10 -7 -6 -11 8 -10 49 25 42
36 -8 13 -24 9 -24 -6z"/>
<path d="M3240 5309 c0 -5 5 -7 10 -4 6 3 10 8 10 11 0 2 -4 4 -10 4 -5 0 -10
-5 -10 -11z"/>
<path d="M3173 5274 c-17 -17 -16 -24 1 -24 15 0 30 27 18 34 -4 2 -13 -2 -19
-10z"/>
<path d="M7442 4629 c-6 -14 -12 -36 -14 -50 -3 -21 1 -24 30 -27 38 -4 42 14
12 68 l-18 35 -10 -26z"/>
<path d="M7760 4625 c0 -54 13 -62 64 -41 24 10 36 21 36 35 0 41 -11 51 -56
51 l-44 0 0 -45z"/>
<path d="M8090 4626 c0 -51 17 -63 58 -43 55 25 33 87 -30 87 -26 0 -28 -2
-28 -44z"/>
<path d="M6615 3768 c-55 -5 -104 -13 -109 -18 -5 -5 -1 -19 8 -32 16 -23 17
-23 239 -23 122 -1 285 -7 362 -14 151 -13 382 -63 524 -113 95 -34 113 -32
102 9 -8 32 -18 36 -215 88 -384 101 -632 129 -911 103z"/>
<path d="M6710 3544 c-180 -40 -205 -49 -205 -75 0 -29 12 -29 100 -5 188 52
529 44 780 -18 179 -44 294 -81 368 -117 33 -16 64 -26 68 -23 15 9 10 40 -10
59 -43 38 -300 123 -486 159 -180 35 -499 46 -615 20z"/>
<path d="M6622 3349 c-137 -28 -205 -48 -157 -48 11 0 121 6 245 13 138 8 262
10 320 5 134 -11 321 -45 415 -75 153 -50 350 -126 413 -159 34 -18 65 -29 67
-24 10 15 -6 57 -28 77 -34 30 -342 138 -520 182 -212 52 -272 60 -457 59
-131 0 -178 -5 -298 -30z"/>
<path d="M6760 3199 c-30 -4 -109 -13 -174 -18 -103 -9 -128 -15 -190 -44 -39
-19 -80 -42 -91 -52 -19 -16 -18 -16 30 -10 67 8 143 22 127 24 -29 2 0 19 45
25 325 46 428 47 654 6 91 -16 197 -39 235 -51 123 -38 379 -108 382 -104 10
10 -88 60 -208 105 -191 73 -478 130 -640 129 -63 -1 -140 -5 -170 -10z"/>
<path d="M6700 3087 c0 -4 124 -27 230 -43 25 -3 95 -21 155 -40 61 -18 175
-49 255 -68 80 -19 195 -47 255 -62 61 -15 157 -30 215 -35 58 -4 129 -11 158
-15 44 -5 52 -4 52 9 0 34 -58 51 -175 52 -60 0 -115 4 -121 7 -17 11 -277 74
-379 93 -49 9 -135 29 -190 45 -55 16 -127 33 -160 39 -66 10 -295 24 -295 18z"/>
<path d="M6405 2949 c-141 -9 -207 -25 -236 -56 l-24 -25 75 6 c180 15 429 18
545 6 400 -41 958 -198 1269 -358 44 -22 85 -38 93 -35 18 7 16 37 -4 55 -51
43 -430 199 -618 253 -153 44 -444 112 -560 130 -81 13 -388 36 -425 32 -8 -1
-60 -4 -115 -8z"/>
<path d="M7990 2714 c0 -10 26 -31 48 -38 32 -11 29 22 -4 34 -29 11 -44 13
-44 4z"/>
<path d="M3630 3764 c-213 -21 -481 -77 -642 -135 -77 -28 -88 -34 -88 -55 0
-31 12 -31 124 5 50 16 130 37 176 46 47 9 135 29 195 43 104 25 125 26 365
26 240 0 263 -2 379 -27 68 -15 142 -27 165 -27 l41 1 -28 24 c-32 29 -127 60
-247 81 -85 15 -355 26 -440 18z"/>
<path d="M3590 3564 c-14 -2 -59 -9 -100 -15 -212 -30 -496 -101 -615 -154
-49 -21 -55 -27 -55 -54 0 -17 2 -31 4 -31 2 0 26 11 53 24 173 87 737 188
958 172 143 -11 341 -35 460 -56 187 -34 222 -24 91 25 -148 56 -341 85 -591
90 -99 2 -191 2 -205 -1z"/>
<path d="M3740 3403 c-25 -2 -90 -12 -145 -23 -55 -11 -159 -29 -232 -39 -216
-33 -294 -56 -456 -134 -146 -70 -167 -86 -167 -126 0 -17 18 -11 148 54 145
73 233 103 412 140 115 24 408 65 465 65 61 0 330 -35 426 -55 39 -8 94 -15
122 -15 51 1 51 1 26 15 -48 26 -171 54 -322 74 -81 10 -153 23 -160 29 -17
13 -63 19 -117 15z"/>
<path d="M3705 3213 c-110 -10 -403 -64 -575 -105 -25 -6 -74 -27 -110 -48
-36 -20 -130 -70 -209 -111 -107 -56 -147 -81 -158 -102 -8 -16 -13 -31 -10
-33 9 -9 108 33 177 76 205 127 250 148 398 185 269 67 375 79 657 77 172 -2
267 -7 305 -16 72 -18 176 -18 191 0 6 8 8 14 5 14 -18 0 -158 23 -221 35 -38
8 -135 19 -215 25 -145 10 -159 10 -235 3z"/>
<path d="M3650 3060 c-242 -34 -398 -70 -635 -147 -93 -30 -176 -58 -185 -63
-40 -23 115 3 285 48 105 27 219 55 255 61 36 7 123 26 194 43 72 17 186 41
255 53 l126 23 -85 0 c-47 0 -141 -8 -210 -18z"/>
<path d="M4085 3070 c11 -5 49 -8 85 -8 l65 1 -50 7 c-27 5 -66 8 -85 8 -28 1
-31 -1 -15 -8z"/>
<path d="M3724 2930 c-102 -14 -404 -78 -499 -105 -192 -56 -389 -131 -514
-196 -167 -87 -196 -106 -196 -125 0 -30 35 -20 190 56 234 114 458 194 640
230 59 11 151 31 204 45 140 35 263 48 471 48 200 0 295 -12 482 -60 59 -15
110 -24 113 -21 14 14 -7 45 -42 62 -20 9 -102 29 -182 43 -124 22 -181 26
-376 29 -126 1 -257 -1 -291 -6z"/>
<path d="M2662 2745 c-62 -26 -75 -37 -70 -58 2 -12 17 -7 68 24 36 21 66 43
68 49 5 14 -4 12 -66 -15z"/>
<path d="M8200 3481 c0 -6 4 -13 10 -16 6 -3 7 1 4 9 -7 18 -14 21 -14 7z"/>
<path d="M8319 3185 c11 -27 46 -113 77 -190 58 -145 61 -151 68 -144 5 5 -42
125 -101 259 -49 109 -79 162 -44 75z"/>
<path d="M6250 2521 l-35 -7 35 -6 c19 -3 118 -6 220 -7 102 -1 202 -4 222 -8
20 -3 50 -2 65 2 27 8 26 9 -17 17 -58 10 -445 18 -490 9z"/>
<path d="M7132 2270 c67 -22 268 -60 268 -49 0 18 -145 54 -255 63 l-70 5 57
-19z"/>
<path d="M3790 2504 c-73 -9 -236 -36 -274 -46 -30 -7 -36 -12 -25 -19 16 -10
75 -5 224 18 76 12 170 15 397 14 276 -2 339 4 290 24 -18 8 -553 16 -612 9z"/>
<path d="M1968 1812 c-30 -19 -42 -48 -22 -56 8 -3 11 0 8 8 -5 14 2 23 41 51
27 20 6 17 -27 -3z"/>
<path d="M4660 1503 l0 -79 73 4 c106 6 117 12 117 65 0 64 -23 81 -116 85
l-74 4 0 -79z"/>
<path d="M6078 1453 c-20 -48 -35 -89 -35 -90 1 -1 36 -2 77 -4 86 -2 83 -7
43 91 -41 103 -44 103 -85 3z"/>
</g>
</svg>
